# xmcd
#
# Track frame offsets: 
#        150
#        8705
#        18412
#        30864
#        49913
#        59010
#        69394
#        84670
#        98307
#        129127
#        140195
#        148747
#        157983
#        173610
#        190177
#        197442
#        222196
#        234678
#
# Disc length: 3264 seconds
#
# Revision: 1
# Processed by: cddbd v1.5.2PL0 Copyright (c) Steve Scherf et al.
# Submitted via: ExactAudioCopy v0.99pb4
#
DISCID=eb0cbe12
DTITLE=Sepultura - A-Lex
DYEAR=2009
DGENRE=Thrash Metal
TTITLE0=A-Lex I
TTITLE1=Moloko Mesto
TTITLE2=Filthy Rot
TTITLE3=We've Lost You!
TTITLE4=What I Do!
TTITLE5=A-Lex II
TTITLE6=The Treatment
TTITLE7=Metamorphosis
TTITLE8=Sadistic Values
TTITLE9=Forceful Behaviour
TTITLE10=Conform
TTITLE11=A-Lex III
TTITLE12=The Experiment
TTITLE13=Strike
TTITLE14=Enough Said
TTITLE15=Ludwig Van
TTITLE16=A-Lex IV
TTITLE17=Paradox
EXTD=
EXTT0=
EXTT1=
EXTT2=
EXTT3=
EXTT4=
EXTT5=
EXTT6=
EXTT7=
EXTT8=
EXTT9=
EXTT10=
EXTT11=
EXTT12=
EXTT13=
EXTT14=
EXTT15=
EXTT16=
EXTT17=
PLAYORDER=
